<?xml version="1.0" standalone="no"?>
<!DOCTYPE svg PUBLIC "-//W3C//DTD SVG 20010904//EN"
 "http://www.w3.org/TR/2001/REC-SVG-20010904/DTD/svg10.dtd">
<svg version="1.0" xmlns="http://www.w3.org/2000/svg"
 width="269.000000pt" height="269.000000pt" viewBox="0 0 269.000000 269.000000"
 preserveAspectRatio="xMidYMid meet">

<g transform="translate(0.000000,269.000000) scale(0.100000,-0.100000)"
fill="#000000" stroke="none">
<path d="M1149 2440 c-403 -68 -750 -363 -878 -748 -43 -127 -54 -201 -54
-357 0 -310 98 -556 311 -777 168 -174 389 -291 624 -328 109 -18 350 -8 453
18 427 109 755 460 830 891 25 140 19 346 -14 467 l-10 39 -86 -3 c-144 -6
-294 33 -422 109 -31 19 -107 84 -169 144 -102 100 -116 119 -157 205 -47 100
-72 183 -83 288 l-7 62 -146 -1 c-80 -1 -167 -5 -192 -9z m301 -888 c393 -227
395 -228 383 -235 -73 -44 -775 -447 -779 -447 -2 0 -4 205 -4 455 l0 456 23
-12 c12 -7 182 -104 377 -217z"/>
</g>
</svg>
